# xmcd
#
# Track frame offsets: 
#        150
#        15259
#        35448
#        53280
#        79513
#        100825
#        136907
#
# Disc length: 2096 seconds
#
# Revision: 0
# Processed by: cddbd v1.5.2PL0 Copyright (c) Steve Scherf et al.
# Submitted via: ExactAudioCopy v1.3
#
DISCID=3f082e07
DTITLE=Johnny Neel - My Kinda Christmas
DYEAR=2014
DGENRE=Blues
TTITLE0=Jingle Bells
TTITLE1=Rudolph The Red Nose Reindeer
TTITLE2=Santa Claus Is Lonely
TTITLE3=Silent Night
TTITLE4=Merry Christmas Baby
TTITLE5=White Christmas
TTITLE6=Silver Bells
EXTD=
EXTT0=
EXTT1=
EXTT2=
EXTT3=
EXTT4=
EXTT5=
EXTT6=
PLAYORDER=
